<svg xmlns="http://www.w3.org/2000/svg" version="1.1" xmlns:xlink="http://www.w3.org/1999/xlink" xmlns:svgjs="http://svgjs.com/svgjs" width="1440" height="560" preserveAspectRatio="none" viewBox="0 0 1440 560"><g mask="url(&quot;#SvgjsMask1001&quot;)" fill="none"><rect width="1440" height="560" x="0" y="0" fill="rgba(192, 195, 199, 1)"></rect><path d="M0,599.449C111.014,600.93,206.547,525.657,293.267,456.332C373.289,392.362,417.09,300.881,477.235,217.946C554.452,111.471,687.227,30.979,696.865,-100.194C706.707,-234.148,621.039,-360.772,526.786,-456.463C435.602,-549.038,312.507,-616.401,182.696,-622.206C62.816,-627.567,-28.381,-522.505,-142.822,-486.406C-253.985,-451.341,-396.241,-497.307,-477.667,-413.901C-558.964,-330.628,-516.773,-191.564,-541.654,-77.878C-569.08,47.433,-686.987,172.744,-631.357,288.331C-575.489,404.413,-403.84,391.631,-288.282,448.575C-188.983,497.507,-110.691,597.973,0,599.449" fill="#979ca2"></path><path d="M1440 1045.47C1555.613 1054.516 1680.079 1148.0520000000001 1778.371 1086.5149999999999 1876.4270000000001 1025.126 1859.404 876.767 1888.37 764.764 1912.153 672.801 1934.959 584.103 1932.863 489.137 1930.522 383.068 1946.655 261.335 1875.524 182.61700000000002 1804.4560000000001 103.97000000000003 1676.796 129.38799999999998 1576.579 94.85500000000002 1469.789 58.057000000000016 1379.315-44.10000000000002 1267.691-26.83000000000004 1154.652-9.341000000000008 1088.537 104.892 1005.211 183.253 911.66 271.229 757.771 332.551 749.277 460.68899999999996 740.659 590.701 893.459 668.207 965.884 776.521 1024.372 863.992 1042.5059999999999 984.181 1134.03 1036.099 1224.617 1087.4859999999999 1336.17 1037.346 1440 1045.47" fill="#e9eaec"></path></g><defs><mask id="SvgjsMask1001"><rect width="1440" height="560" fill="#ffffff"></rect></mask></defs></svg>